<?xml version="1.0" encoding="UTF-8" standalone="no"?>
<!-- Created with Inkscape (http://www.inkscape.org/) -->
<svg width="11.492905mm" height="11.209465mm" viewBox="0 0 11.492905 11.209465" version="1.1" id="svg847" xmlns="http://www.w3.org/2000/svg" xmlns:svg="http://www.w3.org/2000/svg" ml-update="aware">
  <defs id="defs844"/>
  <g id="layer1" transform="translate(-138.97802,-100.10714)">
    <path d="m 144.72405,100.10713 c -3.17324,0 -5.74604,2.57281 -5.74604,5.74675 0,2.53894 1.64641,4.69265 3.92994,5.45289 0.28751,0.0526 0.39229,-0.12489 0.39229,-0.27729 0,-0.13617 -0.005,-0.49777 -0.008,-0.97719 -1.59844,0.34713 -1.93569,-0.77047 -1.93569,-0.77047 -0.26141,-0.66392 -0.63818,-0.84067 -0.63818,-0.84067 -0.52176,-0.3563 0.0395,-0.34925 0.0395,-0.34925 0.57679,0.0406 0.88018,0.59232 0.88018,0.59232 0.51259,0.87806 1.34514,0.62441 1.67252,0.47731 0.0522,-0.37113 0.20038,-0.62442 0.36477,-0.768 -1.27599,-0.14499 -2.61761,-0.63818 -2.61761,-2.84022 0,-0.62723 0.22402,-1.14017 0.59161,-1.54199 -0.0593,-0.14534 -0.25647,-0.72954 0.0561,-1.52082 0,0 0.4826,-0.15452 1.58045,0.58914 0.45826,-0.12771 0.95003,-0.19121 1.43863,-0.19333 0.48789,0.002 0.97966,0.0656 1.43862,0.19333 1.09714,-0.74366 1.57868,-0.58914 1.57868,-0.58914 0.31362,0.79128 0.11642,1.37548 0.0571,1.52082 0.3683,0.40182 0.59091,0.91476 0.59091,1.54199 0,2.20769 -1.34373,2.69346 -2.62396,2.83563 0.20637,0.17745 0.39017,0.52811 0.39017,1.06433 0,0.768 -0.007,1.38783 -0.007,1.57621 0,0.15382 0.10337,0.33267 0.39511,0.27658 2.28177,-0.76165 3.92677,-2.91394 3.92677,-5.45218 0,-3.17394 -2.57316,-5.74675 -5.7471,-5.74675" style="fill:currentColor;fill-opacity:1;fill-rule:evenodd;stroke:none;stroke-width:0.352778" id="path198"/>
  </g>
</svg>
