<svg xmlns="http://www.w3.org/2000/svg" xml:space="preserve" width="512" height="512" style="enable-background:new 0 0 512 512"><circle cx="259.415" cy="264.505" r="243" style="fill:#125e6e"/><path d="m357.04 251.211-115.76 111.71c-11.29 10.89-28.83 11.56-40.89 2.2-1.17-.89-2.29-1.89-3.35-2.99L12.52 170.911c-11.95-12.39-11.6-32.29.79-44.24l115.76-111.71c12.39-11.95 32.29-11.59 44.24.79l17.49 18.12 167.03 173.1c11.95 12.38 11.6 32.29-.79 44.24z" style="fill:#fcf0c0"/><path d="m357.04 251.211-115.76 111.71c-11.29 10.89-28.83 11.56-40.89 2.2-1.17-.89-2.29-1.89-3.35-2.99L12.52 170.911c-11.95-12.39-11.6-32.29.79-44.24l115.76-111.71c12.39-11.95 32.29-11.59 44.24.79l17.49 18.12 167.03 173.1c11.95 12.38 11.6 32.29-.79 44.24z" style="opacity:.15;adobe-blending-mode:multiply;enable-background:new"/><path d="M150.795 22.956c3.807 0 7.609 1.483 10.455 4.432l184.521 191.223c5.561 5.763 5.397 14.978-.366 20.539L229.638 350.86a14.474 14.474 0 0 1-10.084 4.066 14.485 14.485 0 0 1-10.455-4.432L24.578 159.27c-5.561-5.763-5.397-14.978.366-20.539L140.711 27.022a14.482 14.482 0 0 1 10.084-4.066m0-3.352a17.788 17.788 0 0 0-12.412 5.006L22.617 136.319a17.754 17.754 0 0 0-5.454 12.546 17.761 17.761 0 0 0 5.003 12.733l184.521 191.223c3.396 3.519 7.965 5.457 12.867 5.457 4.658 0 9.066-1.778 12.412-5.006l115.767-111.709c7.094-6.845 7.296-18.185.451-25.279L163.663 25.061c-3.396-3.519-7.966-5.457-12.868-5.457z"/><path d="m42.867 156.792 3.429 6.323-4.556 4.396-12.812-25.164 5.766-5.564 24.777 13.618-4.728 4.562-6.312-3.541-5.564 5.37zm1.758-8.044-5.189-2.955c-1.459-.82-3.196-1.928-4.597-2.802l-.058.056c.824 1.431 1.955 3.18 2.723 4.61l2.825 5.236 4.296-4.145zm281.846 74.443-3.314-6.434 4.728-4.562 12.726 25.247-5.766 5.564-24.691-13.701 4.556-4.396 6.197 3.652 5.564-5.37zm-1.759 8.044 5.132 3.01c1.402.818 3.11 2.011 4.51 2.886l.058-.056c-.824-1.431-1.869-3.207-2.636-4.694l-2.768-5.292-4.296 4.146zm-159.369-38.939c-1.423.007-2.813-.231-4.187-.57-2.755-.68-5.255-1.895-7.468-3.669-1.316-1.055-2.526-2.23-3.515-3.609-2.071-2.888-3.245-6.082-3.263-9.664-.009-1.883.332-3.707.933-5.488.619-1.834 1.496-3.542 2.561-5.151a32.79 32.79 0 0 1 4.409-5.347c.927-.908 1.957-1.685 3.008-2.44a28.48 28.48 0 0 1 4.18-2.48c1.765-.857 3.604-1.503 5.536-1.865 2.091-.392 4.183-.421 6.275 0 2.093.421 4.007 1.262 5.778 2.439a16.979 16.979 0 0 1 2.402 1.899c.173.167.359.32.546.471.683.55 1.272 1.189 1.81 1.88 1.992 2.555 3.101 5.471 3.54 8.66.132.955.197 1.914.197 2.878 0 .117-.037.233-.056.348.03-.078.05-.079.058-.005l-.069-.025c.132-.075.255-.161.308-.312.049-.142.092-.286.14-.428.518-1.523 1.313-2.887 2.324-4.137.951-1.175 2.048-2.186 3.228-3.125a19.205 19.205 0 0 1 6.063-3.281c2.371-.77 4.8-1.072 7.288-.867a15.597 15.597 0 0 1 7.262 2.463c.783.503 1.553 1.027 2.205 1.704.188.195.402.359.663.448l4.763 4.936c.014.191.121.337.239.475 1.363 1.605 2.269 3.462 2.975 5.425a16.954 16.954 0 0 1 1.002 5.749 16.65 16.65 0 0 1-1.046 5.83c-.809 2.192-2.012 4.154-3.498 5.957-.942 1.143-1.991 2.174-3.088 3.158-1.21 1.086-2.506 2.058-3.924 2.87a16.296 16.296 0 0 1-5.32 1.905c-1.516.266-3.047.346-4.583.349-.3.001-.601.011-.901.022-.136.005-.2.133-.137.254.305.592.703 1.124 1.12 1.635a15.654 15.654 0 0 0 2.23 2.228c2.075 1.696 4.423 2.889 6.924 3.802 3.154 1.152 6.417 1.825 9.754 2.155.209.021.417.048.623.087.031.006.067.098.062.145-.006.054-.047.111-.088.153a34.53 34.53 0 0 1-.576.572c-2.243 2.181-4.486 4.361-6.728 6.544-1.487 1.448-2.971 2.899-4.457 4.348a8846.253 8846.253 0 0 1-6.206 6.045c-.215.209-.437.411-.65.61-.071-.037-.158-.056-.164-.091a4.652 4.652 0 0 1-.089-.62 41.978 41.978 0 0 0-.491-4.302c-.403-2.38-1.017-4.7-1.969-6.925-.594-1.387-1.304-2.709-2.179-3.937-1.003-1.406-2.174-2.65-3.637-3.593-.327-.211-.676-.39-1.021-.572-.103-.054-.227-.07-.343-.1-.078-.02-.213.058-.208.122.09 1.313-.222 2.571-.546 3.822-.301 1.164-.667 2.31-.988 3.469-.349 1.261-.954 2.397-1.656 3.488a23.946 23.946 0 0 1-3.797 4.566c-2.922 2.73-6.307 4.597-10.246 5.374-5.015.989-9.683.074-13.993-2.669a19.331 19.331 0 0 1-3.684-3.029c-.537-.568-1.087-1.126-1.613-1.704a28.537 28.537 0 0 1-3.023-3.927 16.642 16.642 0 0 1-1.635-3.309 14.532 14.532 0 0 1-.84-4.776c-.028-2.739.423-5.389 1.454-7.934a16.364 16.364 0 0 1 3.931-5.767c1.573-1.499 3.372-2.603 5.456-3.233.232-.07.465-.133.599-.36.022.074.014.085-.026.031a.41.41 0 0 0 .062-.005zM61.054 177.313a5.39 5.39 0 0 1-1.319-.18 6.03 6.03 0 0 1-2.352-1.155 5.784 5.784 0 0 1-1.107-1.136c-.652-.909-1.022-1.915-1.028-3.043a5.298 5.298 0 0 1 .294-1.728 6.996 6.996 0 0 1 .806-1.622c.403-.61.866-1.172 1.389-1.684.292-.286.616-.531.947-.768a8.994 8.994 0 0 1 1.316-.781 6.888 6.888 0 0 1 1.743-.587 5.152 5.152 0 0 1 1.976 0 5.067 5.067 0 0 1 1.819.768c.268.178.524.374.756.598.054.052.113.101.172.148.215.173.4.375.57.592.627.805.976 1.723 1.115 2.727.041.301.062.603.062.906 0 .037-.012.073-.018.11.01-.024.016-.025.018-.002l-.022-.008c.042-.024.08-.051.097-.098.016-.045.029-.09.044-.135.163-.48.413-.909.732-1.303.299-.37.645-.688 1.017-.984a6.05 6.05 0 0 1 1.909-1.033 5.837 5.837 0 0 1 2.295-.273c.827.068 1.59.327 2.287.776.247.158.489.324.694.537a.527.527 0 0 0 .209.141l1.5 1.554c.005.06.038.106.075.15.429.505.715 1.09.937 1.709a5.312 5.312 0 0 1-.014 3.646 6.494 6.494 0 0 1-1.101 1.876c-.297.36-.627.685-.972.995a7.232 7.232 0 0 1-1.236.904c-.524.3-1.083.496-1.675.6-.477.084-.96.109-1.443.11-.095 0-.189.003-.284.007-.043.002-.063.042-.043.08.096.186.221.354.353.515.21.257.444.491.702.702.653.534 1.393.91 2.18 1.197.993.363 2.021.575 3.072.679.066.007.131.015.196.028.01.002.021.031.02.046a.091.091 0 0 1-.028.048c-.06.061-.12.121-.181.18l-2.119 2.061-1.404 1.369-1.954 1.904c-.068.066-.138.129-.205.192-.022-.012-.05-.018-.052-.029a1.431 1.431 0 0 1-.028-.195 13.127 13.127 0 0 0-.155-1.355 9.58 9.58 0 0 0-.62-2.181 6.633 6.633 0 0 0-.686-1.24c-.316-.443-.685-.835-1.145-1.131-.103-.066-.213-.123-.322-.18-.032-.017-.072-.022-.108-.031-.024-.006-.067.018-.066.038.028.413-.07.81-.172 1.204-.095.366-.21.728-.311 1.092-.11.397-.3.755-.522 1.098a7.562 7.562 0 0 1-1.196 1.438c-.92.86-1.986 1.448-3.227 1.692-1.579.311-3.049.023-4.407-.841a6.102 6.102 0 0 1-1.16-.954c-.169-.179-.342-.354-.508-.536a9.06 9.06 0 0 1-.952-1.237 5.207 5.207 0 0 1-.515-1.042 4.587 4.587 0 0 1-.265-1.504 6.396 6.396 0 0 1 .458-2.498 5.152 5.152 0 0 1 1.238-1.816 4.242 4.242 0 0 1 1.718-1.018c.073-.022.147-.042.189-.113.007.023.004.027-.008.01a.062.062 0 0 1 .025-.006zm239.508 31.836c-.018.448.041.888.132 1.324a6.01 6.01 0 0 0 1.071 2.391c.317.426.673.82 1.096 1.147.886.684 1.878 1.09 3.005 1.136a5.306 5.306 0 0 0 1.738-.232 6.976 6.976 0 0 0 1.65-.748 10.286 10.286 0 0 0 1.732-1.328 8.06 8.06 0 0 0 .802-.919c.314-.405.588-.835.827-1.288.29-.546.514-1.117.649-1.721a5.13 5.13 0 0 0 .07-1.975 5.072 5.072 0 0 0-.703-1.846 5.354 5.354 0 0 0-.571-.777 2.39 2.39 0 0 1-.142-.177 3.589 3.589 0 0 0-.571-.591c-.782-.656-1.687-1.037-2.686-1.211a6.52 6.52 0 0 0-.903-.094c-.037-.001-.074.009-.11.014.025-.009.025-.015.002-.018l.007.022c.025-.041.053-.078.102-.093.045-.014.091-.026.136-.039a4.236 4.236 0 0 0 1.328-.685 6.44 6.44 0 0 0 1.02-.981c.479-.56.849-1.18 1.101-1.871a5.826 5.826 0 0 0 .355-2.284 4.898 4.898 0 0 0-.694-2.313c-.15-.252-.306-.5-.511-.713a.524.524 0 0 1-.133-.214l-1.5-1.554a.267.267 0 0 1-.147-.08c-.49-.447-1.064-.753-1.674-.997a5.33 5.33 0 0 0-3.645-.116 6.47 6.47 0 0 0-1.914 1.034c-.37.284-.707.602-1.029.936a7.25 7.25 0 0 0-.947 1.203 5.128 5.128 0 0 0-.659 1.653 8.376 8.376 0 0 0-.161 1.439c-.004.094-.01.189-.017.283-.003.043-.044.061-.082.04a3.001 3.001 0 0 1-.502-.371 4.904 4.904 0 0 1-.676-.727c-.51-.672-.859-1.425-1.119-2.222a12.527 12.527 0 0 1-.569-3.094 1.853 1.853 0 0 0-.021-.197c-.002-.01-.03-.022-.045-.021-.017.001-.035.014-.049.026-.063.057-.125.116-.187.175l-2.135 2.044-1.418 1.354-1.972 1.885c-.068.065-.134.133-.199.198.011.023.016.05.027.053.064.015.129.028.194.035.453.045.903.111 1.348.203a9.62 9.62 0 0 1 2.157.697c.43.202.838.441 1.215.73.431.331.81.714 1.09 1.185.063.105.115.217.169.328.016.033.019.072.028.109.005.025-.021.066-.041.064-.412-.043-.812.041-1.209.129-.37.082-.735.184-1.103.272-.401.096-.765.273-1.116.482-.54.321-1.035.7-1.48 1.144-.892.889-1.518 1.933-1.806 3.164-.368 1.567-.132 3.046.683 4.434.255.435.558.834.912 1.193.173.175.342.355.518.527.373.365.771.7 1.202.996.321.22.661.407 1.023.552.48.191.978.294 1.494.318a6.394 6.394 0 0 0 2.513-.369 5.17 5.17 0 0 0 1.859-1.172 4.254 4.254 0 0 0 1.079-1.681c.025-.072.047-.145.12-.185-.023-.008-.026-.005-.01.008l.002-.023z"/><g style="opacity:.1;adobe-blending-mode:multiply"><path d="m357.04 251.211-115.76 111.71c-11.29 10.89-28.83 11.56-40.89 2.2a30.924 30.924 0 0 1-6.02-9.08L88.69 112.221c-6.84-15.79.48-34.31 16.27-41.15l85.84-37.2 167.03 173.1c11.95 12.38 11.6 32.29-.79 44.24z" style="fill:#fcf0c0;adobe-blending-mode:normal"/><path d="m357.04 251.211-115.76 111.71c-11.29 10.89-28.83 11.56-40.89 2.2a30.924 30.924 0 0 1-6.02-9.08L88.69 112.221c-6.84-15.79.48-34.31 16.27-41.15l85.84-37.2 167.03 173.1c11.95 12.38 11.6 32.29-.79 44.24z" style="adobe-blending-mode:normal"/></g><path d="m385.03 315.981-150.35 57.22c-9.85 3.75-20.49 2.14-28.66-3.38-.01 0-.02-.01-.03-.02a31.096 31.096 0 0 1-11.68-14.72l-94.52-248.35c-6.12-16.09 2.03-34.25 18.12-40.37l150.35-57.22c16.08-6.12 34.25 2.03 40.37 18.11l8.59 22.58 85.93 225.78c6.12 16.08-2.03 34.25-18.12 40.37z" style="fill:#fcf0c0"/><path d="m385.03 315.981-150.35 57.22c-9.85 3.75-20.49 2.14-28.66-3.38-.01 0-.02-.01-.03-.02a31.096 31.096 0 0 1-11.68-14.72l-94.52-248.35c-6.12-16.09 2.03-34.25 18.12-40.37l150.35-57.22c16.08-6.12 34.25 2.03 40.37 18.11l8.59 22.58 85.93 225.78c6.12 16.08-2.03 34.25-18.12 40.37z" style="opacity:.1;adobe-blending-mode:multiply;enable-background:new"/><path d="M279.373 23.854c5.858 0 11.388 3.568 13.592 9.36l94.516 248.357c2.849 7.485-.924 15.894-8.409 18.742l-150.355 57.22c-1.694.645-3.437.95-5.15.95-5.858 0-11.388-3.568-13.592-9.36l-94.516-248.357c-2.849-7.485.924-15.894 8.409-18.742l150.355-57.22a14.447 14.447 0 0 1 5.15-.95m.001-3.352h-.001a17.77 17.77 0 0 0-6.342 1.17l-150.355 57.22c-4.457 1.696-7.989 5.032-9.946 9.393s-2.1 9.217-.404 13.674l94.516 248.357c2.622 6.89 9.344 11.52 16.725 11.52 2.169 0 4.303-.393 6.342-1.17l150.355-57.22c4.457-1.696 7.989-5.032 9.946-9.393s2.1-9.217.404-13.674L296.098 32.021c-2.622-6.89-9.343-11.519-16.724-11.519z" style="fill:#d41920"/><path d="m133.249 105.676.668 7.162-5.917 2.251-1.89-28.174 7.489-2.85 17.431 22.26-6.141 2.337-4.413-5.737-7.227 2.751zm4.779-6.706-3.611-4.757c-1.019-1.327-2.181-3.029-3.126-4.383l-.075.029c.195 1.64.548 3.692.692 5.309l.54 5.925 5.58-2.123zm229.906 179.225-.518-7.219 6.141-2.337 1.779 28.217-7.489 2.85-17.319-22.303 5.917-2.252 4.263 5.794 7.226-2.75zm-4.779 6.706 3.536 4.785c.968 1.304 2.069 3.071 3.013 4.426l.075-.029c-.195-1.64-.458-3.683-.579-5.352l-.465-5.954-5.58 2.124z"/><path d="M266.937 231.909c-.168.044-.284-.053-.403-.118-.691-.379-1.379-.763-2.068-1.147l-40.077-22.291-6.052-3.366c-.172-.096-.345-.191-.515-.29-.309-.179-.33-.227-.232-.533.051-.161.106-.321.16-.481l17.808-52.461c.081-.239.178-.472.279-.703.016-.037.101-.077.137-.065.132.045.261.103.382.172 1.374.773 2.747 1.548 4.119 2.323l26.692 15.077c5.981 3.378 11.961 6.757 17.941 10.137.17.096.334.207.492.322a.184.184 0 0 1 .062.148 2.38 2.38 0 0 1-.099.408c-.324.931-.652 1.86-.979 2.789l-15.151 43.104c-.738 2.098-1.476 4.196-2.217 6.293-.082.233-.131.483-.279.682zm-112.975-83.202c-.064.017-.108-.02-.154-.045a199.07 199.07 0 0 1-.788-.437l-15.278-8.498-2.307-1.283c-.066-.037-.131-.073-.196-.111-.118-.068-.126-.086-.089-.203.019-.061.04-.122.061-.183 2.263-6.667 4.525-13.333 6.789-19.999.031-.091.068-.18.106-.268.006-.014.039-.029.052-.025.05.017.099.039.146.065l1.57.886 10.176 5.748 6.839 3.865c.065.037.127.079.188.123.014.01.026.039.024.056a.845.845 0 0 1-.038.156c-.123.355-.248.709-.373 1.063l-5.776 16.433-.845 2.399c-.032.087-.05.182-.107.258zM359.139 265.43c-.064.017-.108-.02-.154-.045a199.07 199.07 0 0 1-.788-.437l-15.278-8.498-2.307-1.283c-.066-.037-.131-.073-.196-.111-.118-.068-.126-.086-.089-.203.019-.061.04-.122.061-.183 2.263-6.667 4.525-13.333 6.789-19.999.031-.091.068-.18.106-.268.006-.014.039-.029.052-.025.05.017.099.039.146.065l1.57.886 10.176 5.748 6.839 3.865c.065.037.127.079.188.123.014.01.026.039.024.056a.816.816 0 0 1-.038.155c-.123.355-.248.709-.373 1.063l-5.776 16.433-.845 2.399c-.032.088-.05.184-.107.259z" style="fill:#d41920"/><g style="opacity:.1;adobe-blending-mode:multiply"><path d="m385.03 315.981-150.35 57.22c-9.85 3.75-20.49 2.14-28.66-3.38-.01 0-.02-.01-.03-.02-5.84-5.66-9.5-13.56-9.55-22.28l-1.45-265.73c-.1-17.21 13.9-31.36 31.11-31.46l91.12-.5 85.93 225.78c6.12 16.08-2.03 34.25-18.12 40.37z" style="fill:#fcf0c0;adobe-blending-mode:normal"/><path d="m385.03 315.981-150.35 57.22c-9.85 3.75-20.49 2.14-28.66-3.38-.01 0-.02-.01-.03-.02-5.84-5.66-9.5-13.56-9.55-22.28l-1.45-265.73c-.1-17.21 13.9-31.36 31.11-31.46l91.12-.5 85.93 225.78c6.12 16.08-2.03 34.25-18.12 40.37z" style="adobe-blending-mode:normal"/></g><path d="m430.29 89.461-.64 16.58-9.63 248.96c-.66 17.19-15.27 30.72-32.47 30.05l-160.75-6.22c-8.4-.32-15.92-3.97-21.34-9.62-5.68-5.92-9.06-14.05-8.72-22.85l10.27-265.53c.67-17.2 15.28-30.72 32.47-30.06l160.76 6.22c17.19.66 30.72 15.28 30.05 32.47z" style="fill:#fcf0c0"/><path d="m430.29 89.461-.64 16.58-9.63 248.96c-.66 17.19-15.27 30.72-32.47 30.05l-160.75-6.22c-8.4-.32-15.92-3.97-21.34-9.62-5.68-5.92-9.06-14.05-8.72-22.85l10.27-265.53c.67-17.2 15.28-30.72 32.47-30.06l160.76 6.22c17.19.66 30.72 15.28 30.05 32.47z" style="opacity:.05;adobe-blending-mode:multiply;enable-background:new"/><path d="M238.266 67.511c.189 0 .378.004.568.011l160.755 6.217c8.003.31 14.263 7.073 13.953 15.076L403.274 354.35c-.302 7.813-6.756 13.965-14.508 13.965-.189 0-.378-.004-.568-.011l-160.755-6.217c-8.003-.309-14.263-7.073-13.954-15.076l10.269-265.535c.303-7.813 6.756-13.964 14.508-13.965m0-3.352a17.821 17.821 0 0 0-17.857 17.187L210.14 346.881c-.184 4.766 1.502 9.322 4.749 12.83s7.659 5.541 12.425 5.726l160.755 6.217c.234.009.466.013.698.013a17.82 17.82 0 0 0 17.857-17.187l10.269-265.535c.381-9.851-7.323-18.174-17.174-18.555l-160.755-6.217a18.097 18.097 0 0 0-.698-.014z"/><path d="m238.207 92.959-2.19 6.852-6.326-.245 9.292-26.665 8.007.31 7.324 27.308-6.566-.254-1.814-7.006-7.727-.3zm7.023-4.3-1.46-5.79c-.418-1.62-.821-3.641-1.16-5.257l-.08-.003c-.462 1.585-.941 3.612-1.442 5.156l-1.823 5.664 5.965.23zm141.379 254.932 2.35-6.845 6.566.254-9.411 26.661-8.007-.31-7.204-27.303 6.326.245 1.654 7 7.726.298zm-7.022 4.299 1.38 5.787c.38 1.578.701 3.636 1.04 5.252l.08.003c.463-1.585 1.02-3.568 1.563-5.152l1.903-5.66-5.966-.23zm-61.538-107.333c-.076.206-.167.391-.214.586-.235.971-.32 1.96-.342 2.956-.047 2.098.344 4.127.965 6.12.532 1.707 1.239 3.342 2.067 4.924a40.376 40.376 0 0 0 3.995 6.177c.162.207.317.419.478.627.041.054.052.11.002.158a.282.282 0 0 1-.138.078 1.349 1.349 0 0 1-.262.009c-1.227-.034-2.455-.065-3.682-.106-2.951-.1-5.902-.205-8.853-.308l-11.483-.404c-.438-.015-.876-.034-1.314-.051-.072-.003-.119-.036-.117-.102.001-.054.006-.122.038-.158.367-.416.745-.824 1.111-1.242a36.782 36.782 0 0 0 3.381-4.474c1.152-1.805 2.114-3.701 2.804-5.735.501-1.476.828-2.987.939-4.537.101-1.408-.008-2.805-.447-4.159-.053-.163-.145-.315-.233-.464-.018-.03-.115-.048-.149-.027a2.446 2.446 0 0 0-.355.251c-2.329 2.001-5.053 3.11-8.059 3.592-1.654.265-3.315.29-4.983.187-.964-.06-1.924-.147-2.873-.326a9.595 9.595 0 0 1-1.271-.327c-4.183-1.402-7.545-3.91-10.071-7.529-1.095-1.569-1.955-3.256-2.492-5.098-.369-1.267-.577-2.561-.678-3.878a28.794 28.794 0 0 1 .129-5.516c.264-2.274.847-4.476 1.695-6.605 1.056-2.65 2.48-5.092 4.165-7.388 1.178-1.605 2.48-3.106 3.835-4.563 2.731-2.937 5.641-5.686 8.662-8.321 2.116-1.845 4.245-3.673 6.365-5.512.309-.268.609-.547.904-.831 2.993-2.88 5.897-5.846 8.666-8.942 1.521-1.7 2.993-3.441 4.356-5.272a2.29 2.29 0 0 1 .293-.322c.031-.028.134-.031.157-.004.115.131.222.27.316.416a80.147 80.147 0 0 0 2.635 3.829c2.242 3.074 4.648 6.014 7.176 8.855 2.45 2.753 5.036 5.376 7.638 7.984a467.885 467.885 0 0 1 5.237 5.306c1.646 1.703 3.243 3.452 4.721 5.305 1.94 2.431 3.641 5.012 4.951 7.841 1.308 2.827 2.241 5.772 2.731 8.85.254 1.592.343 3.196.211 4.808a21.446 21.446 0 0 1-.488 3.027c-.523 2.291-1.318 4.482-2.484 6.531-1.544 2.712-3.583 4.967-6.17 6.724-1.917 1.302-4.021 2.123-6.295 2.531-1.44.258-2.895.391-4.354.474a2.154 2.154 0 0 1-.35-.006c-4.284-.438-8.094-1.966-11.28-4.92-.321-.298-.615-.625-.93-.93-.054-.047-.152-.053-.256-.089zm-75.467-108.955c-.025.068-.055.13-.071.195a4.584 4.584 0 0 0-.114.984c-.016.699.115 1.374.321 2.037a9.85 9.85 0 0 0 .688 1.639c.38.726.825 1.411 1.33 2.056.054.069.106.14.159.209.014.018.017.037.001.053a.097.097 0 0 1-.046.026.42.42 0 0 1-.087.003 250.82 250.82 0 0 1-1.226-.035c-.982-.033-1.965-.068-2.947-.103l-3.822-.134a61.412 61.412 0 0 1-.437-.017c-.024-.001-.039-.012-.039-.034 0-.018.002-.041.013-.053.122-.139.248-.274.37-.413.412-.469.79-.963 1.125-1.489a8.795 8.795 0 0 0 .933-1.909c.167-.491.276-.994.313-1.51a3.602 3.602 0 0 0-.149-1.384.82.82 0 0 0-.077-.154c-.006-.01-.038-.016-.05-.009a.744.744 0 0 0-.118.084c-.775.666-1.682 1.035-2.683 1.196a7.486 7.486 0 0 1-1.659.062 7.642 7.642 0 0 1-.956-.109 3.241 3.241 0 0 1-.423-.109 6.504 6.504 0 0 1-3.352-2.506 5.781 5.781 0 0 1-.829-1.697 6.337 6.337 0 0 1-.226-1.291 9.543 9.543 0 0 1 .043-1.836c.088-.757.282-1.49.564-2.198.351-.882.826-1.695 1.387-2.459a17.13 17.13 0 0 1 1.277-1.519 38.463 38.463 0 0 1 2.883-2.77c.704-.614 1.413-1.223 2.119-1.835a7.87 7.87 0 0 0 .301-.276 55.86 55.86 0 0 0 2.885-2.976c.506-.566.996-1.146 1.45-1.755a.762.762 0 0 1 .097-.107c.01-.009.045-.01.052-.001.038.044.074.09.105.138.28.434.573.858.877 1.275a39.022 39.022 0 0 0 2.389 2.948c.816.917 1.676 1.79 2.543 2.658.584.586 1.168 1.171 1.743 1.766a25.083 25.083 0 0 1 1.572 1.766c.646.809 1.212 1.668 1.648 2.61.435.941.746 1.921.909 2.946.084.53.114 1.064.07 1.6-.028.34-.087.676-.162 1.008a7.924 7.924 0 0 1-.827 2.174 6.623 6.623 0 0 1-2.054 2.238 5.362 5.362 0 0 1-2.095.842c-.479.086-.964.13-1.449.158a.762.762 0 0 1-.117-.002c-1.426-.146-2.694-.654-3.755-1.638-.107-.099-.205-.208-.31-.309-.02-.02-.052-.022-.087-.034zm143.674 172.801c-.02-.07-.045-.134-.056-.2a4.617 4.617 0 0 1-.038-.99c.038-.698.22-1.361.478-2.006.22-.553.497-1.077.813-1.581a13.37 13.37 0 0 1 1.485-1.947l.175-.196c.015-.017.02-.035.005-.053a.094.094 0 0 0-.044-.03c-.028-.007-.058-.008-.087-.01-.408-.02-.816-.042-1.225-.059a5094.298 5094.298 0 0 0-6.767-.286l-.437-.017c-.024-.001-.04.009-.041.031-.001.018-.001.041.009.054.111.148.226.293.337.441.374.499.713 1.021 1.007 1.572a8.83 8.83 0 0 1 .783 1.975c.128.503.198 1.013.195 1.53-.003.47-.075.931-.255 1.369-.022.053-.056.101-.089.148-.007.01-.039.013-.05.005a.81.81 0 0 1-.111-.092c-.721-.724-1.597-1.162-2.582-1.399a7.442 7.442 0 0 0-1.649-.19 7.72 7.72 0 0 0-.962.034c-.144.016-.289.04-.43.076a6.514 6.514 0 0 0-3.536 2.24 5.77 5.77 0 0 0-.958 1.628 6.373 6.373 0 0 0-.325 1.269 9.629 9.629 0 0 0-.099 1.834 8.59 8.59 0 0 0 .393 2.235c.282.907.692 1.754 1.192 2.559.35.563.743 1.095 1.156 1.613a38.218 38.218 0 0 0 2.661 2.984c.655.667 1.314 1.328 1.971 1.993.096.097.188.197.279.299a55.57 55.57 0 0 1 2.646 3.19c.461.603.905 1.219 1.31 1.862a.759.759 0 0 0 .089.114c.009.01.044.014.052.005.041-.04.081-.084.116-.13.312-.411.637-.811.973-1.203a39.221 39.221 0 0 1 2.609-2.754c.884-.851 1.81-1.655 2.74-2.453a161.62 161.62 0 0 0 1.874-1.626 24.854 24.854 0 0 0 1.703-1.639c.706-.757 1.337-1.57 1.845-2.475.507-.905.892-1.858 1.134-2.867a6.705 6.705 0 0 0 .194-1.59 7.058 7.058 0 0 0-.084-1.017 7.912 7.912 0 0 0-.657-2.231 6.62 6.62 0 0 0-1.875-2.39 5.377 5.377 0 0 0-2.024-1.002 12.015 12.015 0 0 0-1.433-.269.753.753 0 0 0-.116-.007c-1.433.035-2.737.444-3.87 1.343-.114.091-.22.192-.333.285-.023.013-.056.012-.091.021z"/><path d="m429.65 106.041-9.63 248.96c-.66 17.19-15.27 30.72-32.47 30.05l-160.75-6.22c-8.4-.32-15.92-3.97-21.34-9.62-7.64-8.4-10.47-20.71-6.26-32.03l92.72-249.04c6-16.12 24.11-24.41 40.23-18.4l97.5 36.3z" style="opacity:.1;adobe-blending-mode:multiply;enable-background:new"/><path d="M405.663 423.796c-6.725 15.839-25.187 23.295-41.026 16.569l-148.078-62.878c-15.839-6.725-23.295-25.187-16.569-41.026L303.851 91.867c6.725-15.839 25.187-23.295 41.026-16.569l148.078 62.878c15.839 6.725 23.295 25.187 16.569 41.026L405.663 423.796z" style="fill:#fcf0c0"/><path d="M332.668 89.569c1.891 0 3.81.371 5.657 1.155l148.078 62.878c7.372 3.13 10.823 11.675 7.693 19.048l-103.86 244.596c-2.346 5.525-7.735 8.848-13.39 8.848-1.891 0-3.81-.371-5.657-1.155L223.11 362.061c-7.372-3.13-10.823-11.675-7.693-19.048L319.278 98.418c2.346-5.525 7.735-8.848 13.39-8.849m.002-3.352h-.001a17.863 17.863 0 0 0-16.475 10.89L212.331 341.703c-1.864 4.39-1.905 9.248-.115 13.68s5.193 7.899 9.583 9.763l148.078 62.878a17.723 17.723 0 0 0 6.967 1.422 17.865 17.865 0 0 0 16.476-10.89L497.182 173.96c3.853-9.074-.395-19.59-9.468-23.443L339.636 87.639a17.74 17.74 0 0 0-6.966-1.422z" style="fill:#d41920"/><path d="M395.372 260.887a.418.418 0 0 0-.254.213c-1.285 2.428-3.101 4.439-5.052 6.331-2.97 2.88-6.316 5.257-9.936 7.25-1.526.84-3.049 1.689-4.643 2.396-1.566.695-3.129 1.4-4.705 2.071-4.757 2.026-9.574 3.905-14.406 5.742-3.687 1.401-7.304 2.965-10.872 4.643-1.577.741-3.136 1.519-4.704 2.278-.15.073-.289.182-.506.165-.047-.116-.112-.242-.149-.375-1.281-4.572-2.908-9.024-4.645-13.438-.45-1.142-.962-2.26-1.429-3.396-1.032-2.51-2.062-5.02-3.075-7.537-.907-2.252-1.793-4.513-2.685-6.771-.535-1.355-1.082-2.706-1.592-4.07-1.783-4.766-2.903-9.677-3.158-14.771-.158-3.15.027-6.276.657-9.371a27.99 27.99 0 0 1 .65-2.573c.275-.904.668-1.754 1.175-2.561.775-1.235 1.591-2.438 2.505-3.573 1.313-1.63 2.783-3.1 4.459-4.358 1.985-1.491 4.157-2.608 6.554-3.273 2.367-.657 4.77-.848 7.208-.519.85.115 1.683.311 2.494.593.27.094.543.178.814.266 1.199.387 2.353.876 3.46 1.482.777.425 1.538.87 2.264 1.381 3.123 2.201 5.241 5.126 6.354 8.778.647 2.123.894 4.3.857 6.513a27.398 27.398 0 0 1-.918 6.599c-.022.081-.027.166-.04.255.06 0 .131.021.151-.002.111-.128.226-.257.309-.403a25.99 25.99 0 0 1 2.905-4.124c1.445-1.679 3.091-3.122 5-4.256 2.921-1.736 6.091-2.55 9.478-2.544 1.748.003 3.466.23 5.164.656.978.246 1.92.571 2.785 1.08a24.5 24.5 0 0 1 3.687 2.629c3.764 3.283 5.91 7.413 6.515 12.357.287 2.341.191 4.673-.186 6.996-.123.761-.256 1.52-.536 2.245a.567.567 0 0 0-.006.419c-.653 1.526-1.301 3.052-1.948 4.577zM334.544 145.53a.147.147 0 0 0-.087.073c-.442.835-1.066 1.526-1.736 2.176-1.021.99-2.171 1.807-3.415 2.492-.525.289-1.048.58-1.596.824-.538.239-1.075.481-1.617.712-1.635.696-3.29 1.342-4.952 1.974a53.418 53.418 0 0 0-3.737 1.596c-.542.255-1.078.522-1.617.783-.052.025-.099.063-.174.057-.016-.04-.038-.083-.051-.129-.44-1.571-1-3.102-1.597-4.619-.155-.393-.331-.777-.491-1.167-.355-.863-.709-1.725-1.057-2.591-.312-.774-.616-1.551-.923-2.327-.184-.466-.372-.93-.547-1.399-.613-1.638-.998-3.326-1.086-5.077a12.844 12.844 0 0 1 .226-3.221c.061-.298.135-.594.223-.884.094-.311.23-.603.404-.88.267-.424.547-.838.861-1.228a8.627 8.627 0 0 1 1.533-1.498 6.74 6.74 0 0 1 2.252-1.125 6.118 6.118 0 0 1 2.478-.178c.292.039.578.107.857.204.093.032.187.061.28.091.412.133.809.301 1.189.509.267.146.529.299.778.475a5.585 5.585 0 0 1 2.184 3.017c.222.73.307 1.478.294 2.239a9.391 9.391 0 0 1-.316 2.268c-.007.028-.009.057-.014.088.021 0 .045.007.052-.001.038-.044.078-.088.106-.139.287-.505.62-.977.998-1.417a6.979 6.979 0 0 1 1.718-1.463c1.004-.597 2.093-.876 3.258-.874a7.337 7.337 0 0 1 1.775.225c.336.084.66.196.957.371.448.264.874.561 1.267.904 1.294 1.128 2.031 2.548 2.239 4.247a8.503 8.503 0 0 1-.064 2.405 3.79 3.79 0 0 1-.184.772.194.194 0 0 0-.002.144l-.666 1.571z" style="fill:#d41920"/><path d="m328.709 114.282-4.479 5.628-5.827-2.474 18.152-21.63 7.376 3.132-2.847 28.129-6.048-2.568.791-7.194-7.118-3.023zm8.092-1.527.691-5.932c.184-1.663.525-3.695.782-5.326l-.074-.031c-.995 1.318-2.162 3.043-3.179 4.309l-3.715 4.647 5.495 2.333z"/><path d="M397.893 380.746a.146.146 0 0 1-.008-.114c.294-.898.358-1.826.36-2.761.003-1.422-.207-2.817-.579-4.188-.156-.578-.31-1.157-.516-1.72-.202-.553-.401-1.108-.611-1.658-.635-1.66-1.319-3.3-2.019-4.933a53.033 53.033 0 0 1-1.447-3.797c-.193-.567-.373-1.138-.559-1.707-.018-.054-.024-.115-.08-.165-.04.016-.086.03-.129.053-1.436.774-2.926 1.435-4.432 2.059-.39.161-.788.302-1.181.457-.867.344-1.734.688-2.598 1.039-.773.313-1.544.634-2.315.952-.463.191-.927.378-1.387.578-1.604.697-3.086 1.592-4.407 2.745a12.863 12.863 0 0 0-2.161 2.399 9.519 9.519 0 0 0-.481.775 3.654 3.654 0 0 0-.353.902c-.12.486-.223.975-.286 1.472a8.586 8.586 0 0 0-.013 2.143c.105.847.347 1.651.755 2.402a6.138 6.138 0 0 0 1.592 1.907c.231.183.479.342.742.475.088.044.174.092.26.138.382.204.778.373 1.192.502.291.091.582.173.882.23a5.585 5.585 0 0 0 3.688-.524 7.202 7.202 0 0 0 1.815-1.343 9.44 9.44 0 0 0 1.413-1.802c.015-.025.035-.046.053-.071.014.015.036.027.035.038-.005.058-.01.117-.026.173a8.972 8.972 0 0 0-.327 1.703c-.07.758-.034 1.51.141 2.252a6.232 6.232 0 0 0 1.633 2.951c.418.431.884.802 1.395 1.12.294.183.6.338.932.431.501.139 1.01.239 1.53.284 1.71.147 3.244-.308 4.611-1.338a8.515 8.515 0 0 0 1.686-1.716c.159-.212.315-.426.427-.668a.19.19 0 0 1 .102-.101c.226-.526.449-1.05.671-1.574z" style="fill:#d41920"/><path d="m378.475 401.271 4.627-5.565 6.048 2.568-18.262 21.583-7.376-3.132 2.957-28.082 5.827 2.474-.939 7.131 7.118 3.023zm-8.091 1.527-.764 5.9c-.205 1.611-.635 3.648-.893 5.279l.074.031c.995-1.318 2.221-2.974 3.29-4.261l3.788-4.616-5.495-2.333z"/></svg>